<?xml version="1.0" standalone="no"?><!DOCTYPE svg PUBLIC "-//W3C//DTD SVG 1.1//EN" "http://www.w3.org/Graphics/SVG/1.1/DTD/svg11.dtd"><svg t="1708586977580" class="icon" viewBox="0 0 1194 1024" version="1.1" xmlns="http://www.w3.org/2000/svg" p-id="31951" xmlns:xlink="http://www.w3.org/1999/xlink" width="233.203125" height="200"><path d="M972.458667 827.733333H794.88a38.4 38.4 0 1 1 0-76.8h177.578667a60.16 60.16 0 0 0 60.074666-60.096V222.208A60.16 60.16 0 0 0 972.458667 162.133333H222.186667A60.138667 60.138667 0 0 0 162.133333 222.208v468.629333a60.138667 60.138667 0 0 0 60.053334 60.096h155.498666a38.4 38.4 0 0 1 0 76.8h-155.498666A137.002667 137.002667 0 0 1 85.333333 690.858667V222.208A137.002667 137.002667 0 0 1 222.186667 85.333333h750.272A137.024 137.024 0 0 1 1109.333333 222.208v468.629333a137.045333 137.045333 0 0 1-136.874666 136.896z m-256 102.4H478.208c-24.448 0-38.208-28.117333-23.189333-47.424l119.104-153.173333a29.397333 29.397333 0 0 1 46.4 0l119.125333 153.173333c14.997333 19.306667 1.258667 47.424-23.189333 47.424z" fill="#444444" p-id="31952"></path><path d="M553.258667 359.488H485.76v221.866667c0 12.8-2.837333 22.314667-8.533333 28.544-5.696 6.122667-13.056 9.173333-22.08 9.173333-9.173333 0-16.682667-3.114667-22.506667-9.386667-5.696-6.229333-8.533333-15.68-8.533333-28.309333v-221.866667h-67.498667c-10.56 0-18.410667-2.304-23.552-6.890666-5.12-4.714667-7.701333-10.901333-7.701333-18.56 0-7.893333 2.624-14.144 7.893333-18.730667 5.44-4.586667 13.226667-6.869333 23.36-6.869333h196.650667c10.709333 0 18.624 2.346667 23.765333 7.082666 5.269333 4.714667 7.893333 10.88 7.893333 18.538667 0 7.637333-2.624 13.824-7.893333 18.538667-5.290667 4.586667-13.205333 6.869333-23.765333 6.869333z m113.557333-15.616l69.162667 204.8 69.376-206.272c3.605333-10.816 6.314667-18.325333 8.106666-22.485333 1.813333-4.309333 4.8-8.128 8.96-11.456 4.181333-3.477333 9.877333-5.226667 17.088-5.226667 5.290667 0 10.154667 1.322667 14.592 3.968 4.586667 2.645333 8.106667 6.186667 10.624 10.624 2.645333 4.309333 3.946667 8.682667 3.946667 13.12 0 3.050667-0.405333 6.4-1.237333 10.026667a98.986667 98.986667 0 0 1-3.136 10.389333c-1.237333 3.349333-2.496 6.826667-3.733334 10.432l-73.962666 199.573333c-2.645333 7.637333-5.290667 14.933333-7.914667 21.888a96.064 96.064 0 0 1-9.173333 18.133334c-3.477333 5.12-8.106667 9.344-13.952 12.693333-5.696 3.328-12.714667 4.992-21.056 4.992-8.32 0-15.402667-1.664-21.248-4.992a40.917333 40.917333 0 0 1-13.952-12.714667 102.741333 102.741333 0 0 1-9.173334-18.346666 619.2 619.2 0 0 1-7.893333-21.653334l-72.725333-197.909333c-1.258667-3.626667-2.56-7.146667-3.968-10.624a108.330667 108.330667 0 0 1-3.328-11.264 51.946667 51.946667 0 0 1-1.237334-10.197333c0-7.082667 2.837333-13.546667 8.533334-19.370667 5.696-5.845333 12.842667-8.746667 21.461333-8.746667 10.56 0 17.984 3.242667 22.293333 9.792 4.437333 6.378667 8.96 16.64 13.546667 30.826667z" fill="#444444" p-id="31953"></path></svg>